<?xml version="1.0" standalone="no"?><!DOCTYPE svg PUBLIC "-//W3C//DTD SVG 1.1//EN" "http://www.w3.org/Graphics/SVG/1.1/DTD/svg11.dtd"><svg t="1568207249449" class="icon" viewBox="0 0 1024 1024" version="1.1" xmlns="http://www.w3.org/2000/svg" p-id="3105" xmlns:xlink="http://www.w3.org/1999/xlink" width="128" height="128"><defs><style type="text/css"></style></defs><path d="M776.533333 1024 162.133333 1024C72.533333 1024 0 951.466667 0 861.866667L0 247.466667C0 157.866667 72.533333 85.333333 162.133333 85.333333L469.333333 85.333333c25.6 0 42.666667 17.066667 42.666667 42.666667s-17.066667 42.666667-42.666667 42.666667L162.133333 170.666667C119.466667 170.666667 85.333333 204.8 85.333333 247.466667l0 610.133333c0 42.666667 34.133333 76.8 76.8 76.8l610.133333 0c42.666667 0 76.8-34.133333 76.8-76.8L849.066667 554.666667c0-25.6 17.066667-42.666667 42.666667-42.666667s42.666667 17.066667 42.666667 42.666667l0 307.2C938.666667 951.466667 866.133333 1024 776.533333 1024z" p-id="3106" fill="#bfbfbf"></path><path d="M256 810.666667c-12.8 0-21.333333-4.266667-29.866667-12.8C217.6 789.333333 213.333333 772.266667 213.333333 759.466667l42.666667-213.333333c0-8.533333 4.266667-17.066667 12.8-21.333333l512-512c17.066667-17.066667 42.666667-17.066667 59.733333 0l170.666667 170.666667c17.066667 17.066667 17.066667 42.666667 0 59.733333l-512 512c-4.266667 4.266667-12.8 8.533333-21.333333 12.8l-213.333333 42.666667C260.266667 810.666667 260.266667 810.666667 256 810.666667zM337.066667 576l-25.6 136.533333 136.533333-25.6L921.6 213.333333 810.666667 102.4 337.066667 576z" p-id="3107" fill="#bfbfbf"></path></svg>