<?xml version="1.0" standalone="no"?><!DOCTYPE svg PUBLIC "-//W3C//DTD SVG 1.1//EN" "http://www.w3.org/Graphics/SVG/1.1/DTD/svg11.dtd"><svg t="1568211930511" class="icon" viewBox="0 0 1024 1024" version="1.1" xmlns="http://www.w3.org/2000/svg" p-id="1247" xmlns:xlink="http://www.w3.org/1999/xlink" width="128" height="128"><defs><style type="text/css"></style></defs><path d="M899.653 250.291c-15.013-15.039-39.262-15.132-54.16-0.208L404.408 691.929 178.601 465.733c-15.013-15.039-39.354-15.039-54.368 0-15.013 15.039-15.013 39.422 0 54.461l253.025 253.462a38.32 38.32 0 0 0 12.632 8.422l0.039 0.017c0.267 0.109 0.538 0.205 0.806 0.307 11.38 4.361 24.373 3.129 34.73-3.731a38.589 38.589 0 0 0 6.16-5.016c0.459-0.46 0.904-0.93 1.335-1.407l466.9-467.703c14.899-14.924 14.806-39.215-0.207-54.254z" p-id="1248" fill="#1296db"></path></svg>