<?xml version="1.0" standalone="no"?><!DOCTYPE svg PUBLIC "-//W3C//DTD SVG 1.1//EN" "http://www.w3.org/Graphics/SVG/1.1/DTD/svg11.dtd"><svg t="1568004606863" class="icon" viewBox="0 0 1024 1024" version="1.1" xmlns="http://www.w3.org/2000/svg" p-id="18577" xmlns:xlink="http://www.w3.org/1999/xlink" width="200" height="200"><defs><style type="text/css"></style></defs><path d="M918.72782054 470.70496398L553.29503602 470.70496398 553.29503602 105.27217946c0-22.627417-18.59690835-41.22432534-41.29503602-41.29503602-22.627417 0-41.22432534 18.59690835-41.29503602 41.29503602L470.70496398 470.70496398 105.27217946 470.70496398c-22.627417 0-41.22432534 18.59690835-41.29503602 41.29503602 0 22.627417 18.59690835 41.22432534 41.29503602 41.29503602L470.70496398 553.29503602l0 365.43278452c0 22.627417 18.59690835 41.22432534 41.29503602 41.29503602 22.627417 0 41.22432534-18.59690835 41.29503602-41.29503602L553.29503602 553.29503602l365.43278452 0c22.627417 0 41.22432534-18.59690835 41.29503602-41.29503602-0.07071068-22.69812768-18.59690835-41.22432534-41.29503602-41.29503602z" p-id="18578" fill="#ffffff"></path></svg>