<?xml version="1.0" standalone="no"?><!DOCTYPE svg PUBLIC "-//W3C//DTD SVG 1.1//EN" "http://www.w3.org/Graphics/SVG/1.1/DTD/svg11.dtd"><svg t="1567995262279" class="icon" viewBox="0 0 1024 1024" version="1.1" xmlns="http://www.w3.org/2000/svg" p-id="2977" xmlns:xlink="http://www.w3.org/1999/xlink" width="200" height="200"><defs><style type="text/css"></style></defs><path d="M930.671916 958.692598c-7.207146 0-14.308891-2.740414-19.788695-8.201799L512.006651 551.59581l-398.894989 398.894989c-10.958586 10.958586-28.617781 10.958586-39.59274 0-10.975982-10.975982-10.975982-28.617781 0-39.610136l398.877593-398.894989L73.518922 113.108081c-10.975982-10.957563-10.975982-28.625968 0-39.59274s28.634154-10.966773 39.59274 0l398.894989 398.87657L910.883221 73.515341c10.993378-10.966773 28.634154-10.966773 39.61116 0 10.957563 10.966773 10.957563 28.634154 0 39.59274l-398.894989 398.877593 398.894989 398.894989c10.957563 10.992355 10.957563 28.634154 0 39.610136C944.979784 955.952184 937.894412 958.692598 930.671916 958.692598L930.671916 958.692598zM930.671916 958.692598" p-id="2978" fill="#396ddb"></path></svg>