<?xml version="1.0" standalone="no"?><!DOCTYPE svg PUBLIC "-//W3C//DTD SVG 1.1//EN" "http://www.w3.org/Graphics/SVG/1.1/DTD/svg11.dtd"><svg t="1568092653915" class="icon" viewBox="0 0 1024 1024" version="1.1" xmlns="http://www.w3.org/2000/svg" p-id="1501" width="200" height="200" xmlns:xlink="http://www.w3.org/1999/xlink"><defs><style type="text/css"></style></defs><path d="M510.37 584.01L189.495 906.512c-19.945 20.045-52.362 20.126-72.407 0.182-20.045-19.944-20.126-52.362-0.182-72.408l322.281-323.914-322.098-320.478c-20.045-19.944-20.127-52.362-0.184-72.407 19.944-20.045 52.362-20.128 72.407-0.183L513.629 439.99l320.877-322.504c19.945-20.045 52.362-20.126 72.407-0.182 20.045 19.944 20.126 52.362 0.182 72.408L584.814 513.627l322.098 320.478c20.045 19.944 20.127 52.362 0.184 72.407-19.944 20.045-52.362 20.128-72.407 0.183L510.371 584.01z" fill="#ffffff" p-id="1502"></path></svg>