<?xml version="1.0" standalone="no"?><!DOCTYPE svg PUBLIC "-//W3C//DTD SVG 1.1//EN" "http://www.w3.org/Graphics/SVG/1.1/DTD/svg11.dtd"><svg t="1568030255549" class="icon" viewBox="0 0 1024 1024" version="1.1" xmlns="http://www.w3.org/2000/svg" p-id="4727" xmlns:xlink="http://www.w3.org/1999/xlink" width="16" height="16"><defs><style type="text/css"></style></defs><path d="M898.56 456.9088a52.8384 52.8384 0 0 0-36.352-38.7072l-12.9024-3.1232a127.1296 127.1296 0 0 1-73.1136-58.624 132.5056 132.5056 0 0 1-13.6704-94.6176l3.9424-12.0832a54.0672 54.0672 0 0 0-14.848-51.6096 397.0048 397.0048 0 0 0-45.7728-30.1056 383.0784 383.0784 0 0 0-48.0768-24.9856 50.8928 50.8928 0 0 0-51.2 12.4928l-8.96 9.7792a124.4672 124.4672 0 0 1-87.04 35.1744 125.3888 125.3888 0 0 1-87.04-35.1744l-8.6016-9.3696a50.688 50.688 0 0 0-51.2-12.544 365.4656 365.4656 0 0 0-48.3328 25.0368 351.6928 351.6928 0 0 0-45.312 30.1056 52.8384 52.8384 0 0 0-14.848 51.2l3.4816 12.0832a131.2256 131.2256 0 0 1-13.2608 94.208 125.7472 125.7472 0 0 1-73.472 59.0336l-10.9568 3.1232a52.1728 52.1728 0 0 0-36.352 38.7072 365.9776 365.9776 0 0 0-2.7648 55.0912 365.9776 365.9776 0 0 0 2.7648 55.0912 52.1728 52.1728 0 0 0 36.352 38.7072l12.1344 2.7648a125.5936 125.5936 0 0 1 73.472 58.9824 130.2528 130.2528 0 0 1 13.2608 94.6176l-3.4816 12.0832A53.8624 53.8624 0 0 0 271.36 825.856a391.7824 391.7824 0 0 0 45.7216 30.1056 318.3104 318.3104 0 0 0 48.0768 24.9856 51.6608 51.6608 0 0 0 51.2-12.4928l8.6016-9.3696a125.0816 125.0816 0 0 1 174.08 0.3584l8.6016 9.0112a50.688 50.688 0 0 0 51.2 12.4928 367.6672 367.6672 0 0 0 48.4864-24.9856 359.168 359.168 0 0 0 45.312-30.1056 53.3504 53.3504 0 0 0 14.848-51.6096l-3.4816-12.4928a129.8944 129.8944 0 0 1 13.2608-93.7984 126.976 126.976 0 0 1 73.472-59.0336l12.1344-2.7136a52.9408 52.9408 0 0 0 36.352-38.7072 365.9776 365.9776 0 0 0 2.7648-55.0912 427.776 427.776 0 0 0-3.5328-55.5008M511.5904 701.44c-102.7584 0-186.0096-84.8384-186.0096-189.44s83.2512-189.44 186.0096-189.44 186.0608 84.7872 186.0608 189.44-83.2512 189.44-186.0608 189.44" p-id="4728" fill="#ffffff"></path></svg>